<?xml version="1.0" standalone="no"?>
<!DOCTYPE svg PUBLIC "-//W3C//DTD SVG 20010904//EN"
 "http://www.w3.org/TR/2001/REC-SVG-20010904/DTD/svg10.dtd">
<svg version="1.0" xmlns="http://www.w3.org/2000/svg"
 width="512.000000pt" height="512.000000pt" viewBox="0 0 512.000000 512.000000"
 preserveAspectRatio="xMidYMid meet">

<g transform="translate(0.000000,512.000000) scale(0.100000,-0.100000)"
fill="#000000" stroke="none">
<path d="M2330 4759 c-385 -39 -773 -190 -1092 -426 -129 -96 -351 -317 -445
-443 -437 -590 -558 -1335 -327 -2029 258 -777 923 -1339 1749 -1478 153 -25
545 -25 690 1 478 84 881 291 1210 621 362 362 580 820 636 1333 16 156 7 442
-20 597 -63 356 -199 671 -417 961 -73 97 -253 285 -356 371 -441 368 -1045
550 -1628 492z m380 -349 c441 -39 841 -224 1149 -532 665 -663 736 -1688 167
-2443 -77 -103 -238 -264 -341 -341 -384 -289 -852 -422 -1314 -374 -647 68
-1206 460 -1485 1040 -244 507 -243 1105 2 1612 249 515 743 897 1302 1008
188 37 339 46 520 30z"/>
<path d="M1735 3471 c-48 -22 -69 -44 -90 -94 -19 -46 -19 -88 0 -135 11 -24
125 -146 338 -359 l322 -323 -322 -323 c-325 -325 -353 -359 -353 -426 0 -126
145 -211 258 -152 20 11 179 162 352 335 l315 316 320 -319 c176 -175 334
-326 352 -335 100 -50 232 17 250 127 14 90 18 86 -340 444 l-331 333 326 327
c349 352 355 360 345 449 -9 80 -91 154 -172 154 -65 0 -108 -36 -425 -354
-173 -174 -319 -316 -325 -316 -6 0 -152 142 -325 316 -369 370 -389 384 -495
335z"/>
</g>
</svg>
