<?xml version="1.0" standalone="no"?>
<!DOCTYPE svg PUBLIC "-//W3C//DTD SVG 20010904//EN"
 "http://www.w3.org/TR/2001/REC-SVG-20010904/DTD/svg10.dtd">
<svg version="1.0" xmlns="http://www.w3.org/2000/svg"
 width="512.000000pt" height="512.000000pt" viewBox="0 0 512.000000 512.000000"
 preserveAspectRatio="xMidYMid meet">

<g transform="translate(0.000000,512.000000) scale(0.100000,-0.100000)"
fill="#000000" stroke="none">
<path d="M2360 5114 c-619 -57 -1182 -317 -1604 -739 -400 -401 -650 -905
-738 -1490 -22 -149 -16 -540 10 -705 120 -740 517 -1358 1132 -1763 239 -157
587 -302 865 -361 437 -92 892 -69 1313 66 219 70 490 198 609 288 177 133
101 416 -119 446 -61 8 -120 -10 -216 -68 -429 -258 -964 -349 -1467 -247
-442 89 -871 345 -1163 694 -240 286 -391 619 -458 1010 -25 141 -25 491 -1
630 129 741 605 1332 1290 1600 538 210 1126 186 1652 -69 597 -290 1003 -830
1127 -1502 19 -103 22 -156 23 -399 1 -181 5 -289 12 -306 18 -42 72 -98 117
-122 57 -30 165 -30 222 0 61 32 111 93 131 160 14 48 17 100 18 303 0 265 -8
350 -55 567 -207 957 -951 1715 -1905 1943 -197 47 -313 61 -540 65 -115 1
-230 1 -255 -1z"/>
<path d="M3470 3483 c-39 -13 -133 -103 -667 -636 l-623 -621 -237 236 c-255
254 -287 277 -377 278 -71 0 -121 -18 -173 -64 -59 -51 -83 -104 -83 -181 0
-109 12 -124 386 -497 250 -249 351 -342 384 -357 59 -27 141 -27 200 0 67 30
1472 1433 1506 1504 59 125 6 272 -120 331 -60 28 -129 30 -196 7z"/>
</g>
</svg>
