<?xml version="1.0" standalone="no"?>
<!DOCTYPE svg PUBLIC "-//W3C//DTD SVG 20010904//EN"
 "http://www.w3.org/TR/2001/REC-SVG-20010904/DTD/svg10.dtd">
<svg version="1.0" xmlns="http://www.w3.org/2000/svg"
 width="512.000000pt" height="512.000000pt" viewBox="0 0 512.000000 512.000000"
 preserveAspectRatio="xMidYMid meet">

<g transform="translate(0.000000,512.000000) scale(0.100000,-0.100000)"
fill="#000000" stroke="none">
<path d="M3801 5110 c-76 -16 -143 -41 -211 -77 -57 -31 -275 -245 -1723
-1692 -912 -911 -1678 -1683 -1702 -1716 -58 -81 -99 -167 -132 -272 l-27 -88
-4 -523 c-4 -595 -4 -590 73 -667 76 -77 72 -76 662 -73 500 4 521 4 598 26
210 59 428 214 463 329 35 118 -12 240 -115 295 -105 57 -195 44 -303 -43 -36
-29 -90 -64 -120 -78 l-55 -26 -353 -3 -353 -3 3 353 3 353 33 70 c32 67 87
125 1377 1415 l1345 1345 387 -387 388 -388 -1012 -1012 c-788 -789 -1017
-1023 -1032 -1058 -42 -92 -22 -189 54 -267 81 -83 175 -101 280 -53 60 27
2661 2635 2703 2710 17 30 43 91 58 135 25 72 28 94 28 210 0 116 -3 138 -28
210 -50 143 -77 178 -415 518 -343 346 -390 384 -536 433 -89 29 -252 41 -334
24z m197 -505 c50 -21 575 -544 602 -601 25 -51 25 -107 0 -158 -11 -23 -62
-84 -115 -136 l-95 -95 -387 388 -388 387 95 95 c52 52 113 104 135 115 48 24
102 26 153 5z"/>
<path d="M2550 491 c-72 -22 -138 -79 -164 -143 -9 -21 -16 -65 -16 -98 0
-100 45 -175 135 -223 l40 -22 1179 -3 c1328 -3 1241 -7 1321 73 98 98 98 252
0 350 -79 80 6 75 -1304 74 -641 0 -1177 -4 -1191 -8z"/>
</g>
</svg>
